<svg class="rprof-before" xmlns="http://www.w3.org/2000/svg" width="1804px" height="364px" viewBox="0 0 1800 560" y="0" x="0"> <path fill-rule="evenodd" fill="rgb(200, 243, 132)" d="M-0.000,350.539 L9.458,348.563 L16.086,350.750 L23.185,350.018 L30.230,349.734 L36.882,351.741 L43.517,353.816 L50.833,351.882 L56.676,358.747 L64.031,356.379 L70.742,358.040 L77.740,357.587 L84.242,361.216 L90.990,363.296 L98.212,359.310 L104.949,361.819 L111.843,362.783 L118.333,364.000 L124.897,361.289 L131.439,362.813 L138.064,362.833 L144.184,359.692 L149.787,355.430 L158.880,360.563 L166.168,356.166 L174.233,356.656 L180.368,351.519 L187.481,352.114 L194.011,349.370 L200.661,347.318 L207.816,348.012 L214.695,346.563 L221.816,346.758 L228.832,348.941 L235.813,344.611 L242.899,348.781 L249.950,349.209 L256.822,345.126 L263.954,347.393 L270.770,343.781 L278.127,348.545 L284.675,342.117 L292.043,345.944 L298.641,341.255 L305.863,342.935 L313.229,345.452 L319.683,340.358 L327.056,342.533 L333.916,340.812 L340.981,340.484 L348.123,340.555 L354.043,333.396 L361.695,336.400 L367.774,330.704 L374.917,330.768 L381.890,329.887 L388.415,326.863 L395.399,326.034 L402.817,327.027 L410.360,328.363 L417.089,326.224 L423.999,324.811 L429.401,317.623 L436.183,315.860 L443.369,315.559 L450.270,314.167 L457.835,315.025 L464.183,311.865 L470.856,312.438 L476.937,309.913 L482.832,306.436 L488.886,303.146 L496.660,300.704 L504.811,302.142 L513.157,305.588 L519.279,298.365 L526.641,302.615 L533.064,297.912 L539.868,296.817 L546.745,296.449 L553.785,298.007 L560.941,301.280 L567.262,294.012 L574.451,298.233 L581.418,299.839 L587.930,293.497 L594.940,296.103 L601.803,296.039 L608.647,295.365 L615.546,297.316 L622.382,296.660 L629.233,295.103 L636.050,298.464 L642.933,296.247 L649.759,297.012 L656.817,292.838 L663.349,298.995 L670.638,293.098 L677.329,293.675 L683.437,295.626 L689.574,293.676 L695.895,294.788 L702.374,297.469 L708.171,291.881 L714.363,291.293 L720.525,290.465 L726.743,290.224 L734.344,294.174 L740.921,288.414 L748.260,291.044 L755.331,290.142 L762.414,289.061 L769.571,290.544 L776.692,292.485 L783.782,288.715 L790.860,293.139 L798.022,288.669 L804.174,293.651 L810.420,293.174 L816.653,293.834 L822.905,292.917 L829.836,288.991 L836.639,292.303 L843.443,287.228 L850.231,287.114 L857.197,291.522 L864.081,291.965 L870.901,291.115 L877.455,286.804 L884.735,292.078 L891.365,289.199 L898.179,288.509 L904.711,285.319 L911.283,282.745 L918.518,285.666 L924.982,282.349 L931.733,281.326 L938.789,282.437 L945.179,278.894 L952.089,278.934 L959.512,282.184 L966.122,280.191 L972.845,278.916 L979.464,277.038 L986.469,277.546 L992.393,271.348 L999.383,271.721 L1006.200,271.061 L1012.631,267.939 L1020.040,270.971 L1026.762,269.706 L1033.124,266.016 L1039.865,264.821 L1046.888,265.555 L1053.555,263.834 L1060.381,263.179 L1067.804,261.297 L1075.287,260.065 L1082.983,260.959 L1090.650,258.212 L1098.786,261.559 L1105.457,257.770 L1113.397,260.134 L1120.467,258.414 L1126.739,253.732 L1133.311,250.027 L1141.176,252.153 L1148.504,253.202 L1155.425,252.668 L1161.809,249.474 L1168.748,247.314 L1174.085,253.542 L1181.178,253.157 L1187.248,256.766 L1194.939,253.142 L1201.394,254.867 L1207.435,259.195 L1214.496,257.425 L1220.542,263.031 L1227.162,265.076 L1234.053,264.292 L1240.959,262.615 L1247.644,266.067 L1254.377,260.749 L1260.615,262.626 L1266.192,258.588 L1273.178,263.522 L1278.139,256.612 L1285.796,254.052 L1294.657,256.759 L1302.408,254.306 L1307.895,248.951 L1314.684,247.290 L1321.829,246.674 L1329.200,246.796 L1334.758,241.563 L1341.077,238.522 L1348.805,239.893 L1354.550,234.994 L1360.864,231.840 L1367.427,229.426 L1374.455,228.705 L1380.854,225.634 L1388.512,227.624 L1395.704,228.023 L1401.487,221.967 L1409.258,225.504 L1415.464,221.018 L1421.951,217.522 L1429.285,219.646 L1435.434,218.004 L1441.899,219.184 L1448.025,216.949 L1454.855,216.692 L1461.564,214.927 L1468.757,218.930 L1475.381,216.208 L1481.723,210.879 L1488.845,213.470 L1495.685,213.217 L1502.145,209.558 L1508.929,208.836 L1516.055,210.902 L1522.769,209.523 L1529.200,206.009 L1536.317,207.806 L1543.496,209.897 L1550.284,209.061 L1556.500,204.105 L1562.894,200.518 L1570.236,203.603 L1577.011,202.689 L1584.067,203.696 L1590.484,200.314 L1597.052,197.977 L1603.878,197.420 L1610.338,194.266 L1618.000,199.564 L1624.432,196.283 L1630.816,192.649 L1637.891,193.981 L1644.745,193.663 L1652.473,188.945 L1661.705,192.355 L1667.328,186.211 L1674.892,189.106 L1680.205,182.268 L1687.750,184.598 L1692.984,178.172 L1700.294,181.488 L1705.306,176.941 L1711.409,175.955 L1717.699,175.195 L1722.374,168.528 L1729.895,169.049 L1736.562,167.611 L1743.787,168.845 L1750.214,166.831 L1756.579,163.923 L1763.166,161.841 L1769.804,159.853 L1776.400,157.225 L1783.808,162.836 L1790.376,159.931 L1797.287,160.454 L1804.000,158.218 L1804.000,0.000 L-0.000,0.000 L-0.000,350.539 Z"></path> </svg>