<svg class="ocean-light" viewBox="0 0 2000 1125" fill="none" xmlns="http://www.w3.org/2000/svg"> <g clip-path="url(#clip0_2_79)"> <rect width="2000" height="1125" fill="#ffffff"></rect> <path d="M1002.62 0H2000V1125H-1L4.46725 639.133L398.107 602.001C637.869 602.001 726.004 543.772 784.717 338.922C804.309 270.563 890.937 160.376 890.937 160.376C890.937 160.376 982.317 94.8034 1002.62 0Z" fill="url(#paint0_radial_2_79)"></path> <path d="M1333.78 -3H2000V1122H-1V633.763L655.847 608.482C895.609 608.482 1005.61 579.484 1064.33 374.633C1083.92 306.274 1185.56 174.036 1216.63 128.935C1239.69 95.4517 1256.46 73.6327 1290.82 44.4017C1310.35 13.5906 1333.78 -3 1333.78 -3Z" fill="url(#paint1_radial_2_79)"></path> <path d="M1333.78 0H2000V1125H-1V636.763C-1 636.763 6.8103 635.183 881.564 635.183C1121.33 635.183 1076.69 524.812 1135.4 319.961C1154.99 251.602 1185.56 177.036 1216.63 131.935C1239.69 98.4517 1256.46 76.6327 1290.82 47.4017C1310.35 16.5906 1333.78 0 1333.78 0Z" fill="url(#paint2_linear_2_79)"></path> <path d="M1557.16 0H2000V1125H-1V636.763C-1 636.763 145.834 728.406 1020.59 728.406C1260.35 728.406 1336.21 528.412 1407.98 327.862C1470.46 153.265 1557.16 0 1557.16 0Z" fill="url(#paint3_linear_2_79)"></path> <g filter="url(#filter0_b_2_79)"> <path d="M1557.16 0H2000V1125H-1V636.763C-1 636.763 105.746 650.5 980.5 650.5C1220.26 650.5 1336.21 528.412 1407.98 327.862C1470.46 153.265 1557.16 0 1557.16 0Z" fill="white" fill-opacity="0.01"></path> </g> <path d="M1789.9 0H2000V1125H-1V636.763C-1 636.763 276.266 808.199 1151.02 808.199C1390.78 808.199 1560.84 553.861 1636.04 338.132C1701.65 116.134 1789.9 0 1789.9 0Z" fill="url(#paint4_linear_2_79)"></path> <path d="M1811 746C1877.08 652.311 1998 518 1998 518V785L1918.5 895.5L1811 937H1504.5C1504.5 937 1749.1 833.761 1811 746Z" fill="url(#paint5_linear_2_79)"></path> <path opacity="0.2" d="M1665.41 896.826C1588.6 891.499 1582.06 901.89 1545.56 888.514C1516.37 877.814 1491.95 873.499 1483.39 872.68C1449.73 870.346 1419.47 879.77 1387.79 877.573C1363.42 875.882 1343.8 884.011 1338.38 883.635C1332.97 883.26 1321.06 898.023 1285.85 895.581C1250.64 893.139 1158.54 940.211 1139 937.5C1139 937.5 1556.55 985.011 1665.41 896.826Z" fill="url(#paint6_linear_2_79)"></path> <path d="M1035.5 962.118C1077.5 928.741 1144.55 930.596 1195.74 915.761C1236.69 903.894 1270.5 900.309 1282.29 900H1359.54C1366.05 905.254 1385.79 915.761 1412.59 915.761C1446.1 915.761 1472.15 928.741 1479.6 928.741C1487.05 928.741 1501.94 950.065 1550.33 950.065C1598.73 950.065 1716.01 990.354 1743 988.5C1743 988.5 1176.05 1093.07 1035.5 962.118Z" fill="url(#paint7_linear_2_79)"></path> <path d="M1811 947C1877.08 853.311 1998 719 1998 719V1124.5H1461C1461 1124.5 1749.1 1034.76 1811 947Z" fill="url(#paint8_linear_2_79)"></path> </g> <defs> <filter id="filter0_b_2_79" x="-61" y="-60" width="2121" height="1245" filterUnits="userSpaceOnUse" color-interpolation-filters="sRGB"> <feFlood flood-opacity="0" result="BackgroundImageFix"></feFlood> <feGaussianBlur in="BackgroundImageFix" stdDeviation="30"></feGaussianBlur> <feComposite in2="SourceAlpha" operator="in" result="effect1_backgroundBlur_2_79"></feComposite> <feBlend mode="normal" in="SourceGraphic" in2="effect1_backgroundBlur_2_79" result="shape"></feBlend> </filter> <radialGradient id="paint0_radial_2_79" cx="0" cy="0" r="1" gradientUnits="userSpaceOnUse" gradientTransform="translate(999 68) rotate(100.968) scale(772.613 1374.22)"> <stop stop-color="#d9dbd4" stop-opacity="0.2"></stop> <stop offset="1" stop-color="#d9dbd4" stop-opacity="0"></stop> </radialGradient> <radialGradient id="paint1_radial_2_79" cx="0" cy="0" r="1" gradientUnits="userSpaceOnUse" gradientTransform="translate(1070 166) rotate(93.1239) scale(596.386 1060.77)"> <stop stop-color="#d9dbd4" stop-opacity="0.3"></stop> <stop offset="1" stop-color="#d9dbd4" stop-opacity="0"></stop> </radialGradient> <linearGradient id="paint2_linear_2_79" x1="1478.5" y1="29" x2="724" y2="860.5" gradientUnits="userSpaceOnUse"> <stop stop-color="#d9dbd4" stop-opacity="0.4"></stop> <stop offset="1" stop-color="#d9dbd4" stop-opacity="0"></stop> </linearGradient> <linearGradient id="paint3_linear_2_79" x1="1706" y1="27.9999" x2="908" y2="1064" gradientUnits="userSpaceOnUse"> <stop stop-color="#d9dbd4" stop-opacity="0.7"></stop> <stop offset="1" stop-color="#d9dbd4" stop-opacity="0"></stop> </linearGradient> <linearGradient id="paint4_linear_2_79" x1="1836" y1="0.00011728" x2="1549" y2="1125" gradientUnits="userSpaceOnUse"> <stop stop-color="#d9dbd4"></stop> <stop offset="1" stop-color="#d9dbd4" stop-opacity="0"></stop> </linearGradient> <linearGradient id="paint5_linear_2_79" x1="1894" y1="649" x2="1892" y2="895.5" gradientUnits="userSpaceOnUse"> <stop stop-color="#d9dbd4"></stop> <stop offset="1" stop-color="#d9dbd4" stop-opacity="0"></stop> </linearGradient> <linearGradient id="paint6_linear_2_79" x1="1421.57" y1="856.364" x2="1422.65" y2="913.074" gradientUnits="userSpaceOnUse"> <stop stop-color="#d9dbd4"></stop> <stop offset="1" stop-color="#d9dbd4" stop-opacity="0"></stop> </linearGradient> <linearGradient id="paint7_linear_2_79" x1="1386.14" y1="900" x2="1379.97" y2="982.956" gradientUnits="userSpaceOnUse"> <stop stop-color="#d9dbd4"></stop> <stop offset="1" stop-color="#d9dbd4" stop-opacity="0"></stop> </linearGradient> <linearGradient id="paint8_linear_2_79" x1="1922" y1="763.5" x2="1648.5" y2="1226" gradientUnits="userSpaceOnUse"> <stop stop-color="#d9dbd4"></stop> <stop offset="0.764652" stop-color="#d9dbd4" stop-opacity="0"></stop> </linearGradient> <clipPath id="clip0_2_79"> <rect width="2000" height="1125" fill="white"></rect> </clipPath> </defs> </svg>